# Wavefront OBJ file automatically generated by Tiled2Unity

# Vertices (Count = 161)
v 0 -32 0
v -32 -32 0
v -32 0 0
v 0 0 0
v -64 -32 0
v -64 0 0
v -96 -32 0
v -96 0 0
v -128 -32 0
v -128 0 0
v 0 -64 0
v -32 -64 0
v -64 -64 0
v -96 -64 0
v -128 -64 0
v 0 -96 0
v -32 -96 0
v -64 -96 0
v -96 -96 0
v -128 -96 0
v 0 -128 0
v -32 -128 0
v -64 -128 0
v -96 -128 0
v -128 -128 0
v 0 -160 0
v -32 -160 0
v -64 -160 0
v -96 -160 0
v -128 -160 0
v 0 -192 0
v -32 -192 0
v -64 -192 0
v -96 -192 0
v -128 -192 0
v -512 -192 0
v -544 -192 0
v -544 -160 0
v -512 -160 0
v -576 -192 0
v -576 -160 0
v -608 -192 0
v -608 -160 0
v 0 -224 0
v -32 -224 0
v -64 -224 0
v -96 -224 0
v -128 -224 0
v -512 -224 0
v -544 -224 0
v -576 -224 0
v -608 -224 0
v 0 -256 0
v -32 -256 0
v -64 -256 0
v -96 -256 0
v -128 -256 0
v -320 -256 0
v -352 -256 0
v -352 -224 0
v -320 -224 0
v -384 -256 0
v -384 -224 0
v -416 -256 0
v -416 -224 0
v 0 -288 0
v -32 -288 0
v -64 -288 0
v -96 -288 0
v -128 -288 0
v 0 -320 0
v -32 -320 0
v -64 -320 0
v -96 -320 0
v -128 -320 0
v -448 -128 0
v -480 -128 0
v -480 -96 0
v -448 -96 0
v -512 -128 0
v -512 -96 0
v -544 -128 0
v -544 -96 0
v -576 -128 0
v -576 -96 0
v -608 -128 0
v -608 -96 0
v -640 -128 0
v -640 -96 0
v -448 -160 0
v -480 -160 0
v -640 -160 0
v -672 -160 0
v -672 -128 0
v -704 -160 0
v -704 -128 0
v -736 -160 0
v -736 -128 0
v -320 -192 0
v -352 -192 0
v -352 -160 0
v -320 -160 0
v -384 -192 0
v -384 -160 0
v -416 -192 0
v -416 -160 0
v -448 -192 0
v -480 -192 0
v -640 -192 0
v -160 -256 0
v -160 -224 0
v -192 -256 0
v -192 -224 0
v -224 -256 0
v -224 -224 0
v -256 -256 0
v -256 -224 0
v -288 -256 0
v -288 -224 0
v -160 -288 0
v -192 -288 0
v -224 -288 0
v -256 -288 0
v -288 -288 0
v -320 -288 0
v -352 -288 0
v -384 -288 0
v -416 -288 0
v -160 -320 0
v -192 -320 0
v -224 -320 0
v -256 -320 0
v -288 -320 0
v -320 -320 0
v -352 -320 0
v -384 -320 0
v -416 -320 0
v -64 -352 0
v -96 -352 0
v -128 -352 0
v -160 -352 0
v -192 -352 0
v -224 -352 0
v -256 -352 0
v -288 -352 0
v -320 -352 0
v -352 -352 0
v -384 -352 0
v -416 -352 0
v -64 -384 0
v -96 -384 0
v -128 -384 0
v -160 -384 0
v -192 -384 0
v -224 -384 0
v -256 -384 0
v -288 -384 0
v -320 -384 0
v -352 -384 0
v -384 -384 0
v -416 -384 0

# Texture Coorindates (Count = 40)
vt 0.05012207 0.900122
vt 0.09987793 0.900122
vt 0.09987793 0.9998779
vt 0.05012207 0.9998779
vt 0.1001221 0.900122
vt 0.1498779 0.900122
vt 0.1498779 0.9998779
vt 0.1001221 0.9998779
vt 0.05012207 0.8001221
vt 0.09987793 0.8001221
vt 0.09987793 0.8998779
vt 0.05012207 0.8998779
vt 0.1001221 0.8001221
vt 0.1498779 0.8001221
vt 0.1498779 0.8998779
vt 0.1001221 0.8998779
vt 0.0001220703 0.8001221
vt 0.04987793 0.8001221
vt 0.04987793 0.8998779
vt 0.0001220703 0.8998779
vt 0.0001220703 0.7001221
vt 0.04987793 0.7001221
vt 0.04987793 0.7998779
vt 0.0001220703 0.7998779
vt 0.05012207 0.7001221
vt 0.09987793 0.7001221
vt 0.09987793 0.7998779
vt 0.05012207 0.7998779
vt 0.1001221 0.7001221
vt 0.1498779 0.7001221
vt 0.1498779 0.7998779
vt 0.1001221 0.7998779
vt 0.0001220703 0.900122
vt 0.04987793 0.900122
vt 0.04987793 0.9998779
vt 0.0001220703 0.9998779
vt 0.2001221 0.7001221
vt 0.2498779 0.7001221
vt 0.2498779 0.7998779
vt 0.2001221 0.7998779

# Normal
vn 0 0 -1

# Groups (Count = 2)
g mesh_[00]_[00]
f  1/1/1  2/2/1  3/3/1  4/4/1 
f  2/1/1  5/2/1  6/3/1  3/4/1 
f  5/1/1  7/2/1  8/3/1  6/4/1 
f  7/5/1  9/6/1  10/7/1  8/8/1 
f  11/9/1  12/10/1  2/11/1  1/12/1 
f  12/9/1  13/10/1  5/11/1  2/12/1 
f  13/9/1  14/10/1  7/11/1  5/12/1 
f  14/13/1  15/14/1  9/15/1  7/16/1 
f  16/9/1  17/10/1  12/11/1  11/12/1 
f  17/9/1  18/10/1  13/11/1  12/12/1 
f  18/9/1  19/10/1  14/11/1  13/12/1 
f  19/13/1  20/14/1  15/15/1  14/16/1 
f  21/9/1  22/10/1  17/11/1  16/12/1 
f  22/9/1  23/10/1  18/11/1  17/12/1 
f  23/9/1  24/10/1  19/11/1  18/12/1 
f  24/13/1  25/14/1  20/15/1  19/16/1 
f  26/9/1  27/10/1  22/11/1  21/12/1 
f  27/9/1  28/10/1  23/11/1  22/12/1 
f  28/9/1  29/10/1  24/11/1  23/12/1 
f  29/13/1  30/14/1  25/15/1  24/16/1 
f  31/9/1  32/10/1  27/11/1  26/12/1 
f  32/9/1  33/10/1  28/11/1  27/12/1 
f  33/9/1  34/10/1  29/11/1  28/12/1 
f  34/13/1  35/14/1  30/15/1  29/16/1 
f  36/17/1  37/18/1  38/19/1  39/20/1 
f  37/9/1  40/10/1  41/11/1  38/12/1 
f  40/13/1  42/14/1  43/15/1  41/16/1 
f  44/9/1  45/10/1  32/11/1  31/12/1 
f  45/9/1  46/10/1  33/11/1  32/12/1 
f  46/9/1  47/10/1  34/11/1  33/12/1 
f  47/13/1  48/14/1  35/15/1  34/16/1 
f  49/21/1  50/22/1  37/23/1  36/24/1 
f  50/25/1  51/26/1  40/27/1  37/28/1 
f  51/29/1  52/30/1  42/31/1  40/32/1 
f  53/9/1  54/10/1  45/11/1  44/12/1 
f  54/9/1  55/10/1  46/11/1  45/12/1 
f  55/9/1  56/10/1  47/11/1  46/12/1 
f  56/13/1  57/14/1  48/15/1  47/16/1 
f  58/17/1  59/18/1  60/19/1  61/20/1 
f  59/9/1  62/10/1  63/11/1  60/12/1 
f  62/13/1  64/14/1  65/15/1  63/16/1 
f  66/9/1  67/10/1  54/11/1  53/12/1 
f  67/9/1  68/10/1  55/11/1  54/12/1 
f  68/9/1  69/10/1  56/11/1  55/12/1 
f  69/13/1  70/14/1  57/15/1  56/16/1 
f  71/25/1  72/26/1  67/27/1  66/28/1 
f  72/25/1  73/26/1  68/27/1  67/28/1 
f  73/25/1  74/26/1  69/27/1  68/28/1 
f  74/29/1  75/30/1  70/31/1  69/32/1 
g mesh_[01]_[00]
f  76/33/1  77/34/1  78/35/1  79/36/1 
f  77/1/1  80/2/1  81/3/1  78/4/1 
f  80/1/1  82/2/1  83/3/1  81/4/1 
f  82/1/1  84/2/1  85/3/1  83/4/1 
f  84/1/1  86/2/1  87/3/1  85/4/1 
f  86/5/1  88/6/1  89/7/1  87/8/1 
f  90/17/1  91/18/1  77/19/1  76/20/1 
f  91/9/1  39/10/1  80/11/1  77/12/1 
f  39/9/1  38/10/1  82/11/1  80/12/1 
f  38/9/1  41/10/1  84/11/1  82/12/1 
f  41/9/1  43/10/1  86/11/1  84/12/1 
f  43/13/1  92/14/1  88/15/1  86/16/1 
f  92/37/1  93/38/1  94/39/1  88/40/1 
f  93/37/1  95/38/1  96/39/1  94/40/1 
f  95/37/1  97/38/1  98/39/1  96/40/1 
f  99/33/1  100/34/1  101/35/1  102/36/1 
f  100/1/1  103/2/1  104/3/1  101/4/1 
f  103/5/1  105/6/1  106/7/1  104/8/1 
f  107/21/1  108/22/1  91/23/1  90/24/1 
f  108/25/1  36/26/1  39/27/1  91/28/1 
f  36/25/1  37/26/1  38/27/1  39/28/1 
f  37/25/1  40/26/1  41/27/1  38/28/1 
f  40/25/1  42/26/1  43/27/1  41/28/1 
f  42/29/1  109/30/1  92/31/1  43/32/1 
f  61/17/1  60/18/1  100/19/1  99/20/1 
f  60/9/1  63/10/1  103/11/1  100/12/1 
f  63/13/1  65/14/1  105/15/1  103/16/1 
f  55/33/1  56/34/1  47/35/1  46/36/1 
f  56/1/1  57/2/1  48/3/1  47/4/1 
f  57/1/1  110/2/1  111/3/1  48/4/1 
f  110/1/1  112/2/1  113/3/1  111/4/1 
f  112/1/1  114/2/1  115/3/1  113/4/1 
f  114/1/1  116/2/1  117/3/1  115/4/1 
f  116/1/1  118/2/1  119/3/1  117/4/1 
f  118/1/1  58/2/1  61/3/1  119/4/1 
f  58/1/1  59/2/1  60/3/1  61/4/1 
f  59/1/1  62/2/1  63/3/1  60/4/1 
f  62/5/1  64/6/1  65/7/1  63/8/1 
f  68/17/1  69/18/1  56/19/1  55/20/1 
f  69/9/1  70/10/1  57/11/1  56/12/1 
f  70/9/1  120/10/1  110/11/1  57/12/1 
f  120/9/1  121/10/1  112/11/1  110/12/1 
f  121/9/1  122/10/1  114/11/1  112/12/1 
f  122/9/1  123/10/1  116/11/1  114/12/1 
f  123/9/1  124/10/1  118/11/1  116/12/1 
f  124/9/1  125/10/1  58/11/1  118/12/1 
f  125/9/1  126/10/1  59/11/1  58/12/1 
f  126/9/1  127/10/1  62/11/1  59/12/1 
f  127/13/1  128/14/1  64/15/1  62/16/1 
f  73/17/1  74/18/1  69/19/1  68/20/1 
f  74/9/1  75/10/1  70/11/1  69/12/1 
f  75/9/1  129/10/1  120/11/1  70/12/1 
f  129/9/1  130/10/1  121/11/1  120/12/1 
f  130/9/1  131/10/1  122/11/1  121/12/1 
f  131/9/1  132/10/1  123/11/1  122/12/1 
f  132/9/1  133/10/1  124/11/1  123/12/1 
f  133/9/1  134/10/1  125/11/1  124/12/1 
f  134/9/1  135/10/1  126/11/1  125/12/1 
f  135/9/1  136/10/1  127/11/1  126/12/1 
f  136/13/1  137/14/1  128/15/1  127/16/1 
f  138/17/1  139/18/1  74/19/1  73/20/1 
f  139/9/1  140/10/1  75/11/1  74/12/1 
f  140/9/1  141/10/1  129/11/1  75/12/1 
f  141/9/1  142/10/1  130/11/1  129/12/1 
f  142/9/1  143/10/1  131/11/1  130/12/1 
f  143/9/1  144/10/1  132/11/1  131/12/1 
f  144/9/1  145/10/1  133/11/1  132/12/1 
f  145/9/1  146/10/1  134/11/1  133/12/1 
f  146/9/1  147/10/1  135/11/1  134/12/1 
f  147/9/1  148/10/1  136/11/1  135/12/1 
f  148/13/1  149/14/1  137/15/1  136/16/1 
f  150/17/1  151/18/1  139/19/1  138/20/1 
f  151/9/1  152/10/1  140/11/1  139/12/1 
f  152/9/1  153/10/1  141/11/1  140/12/1 
f  153/9/1  154/10/1  142/11/1  141/12/1 
f  154/9/1  155/10/1  143/11/1  142/12/1 
f  155/9/1  156/10/1  144/11/1  143/12/1 
f  156/9/1  157/10/1  145/11/1  144/12/1 
f  157/9/1  158/10/1  146/11/1  145/12/1 
f  158/9/1  159/10/1  147/11/1  146/12/1 
f  159/9/1  160/10/1  148/11/1  147/12/1 
f  160/13/1  161/14/1  149/15/1  148/16/1 
